<svg xmlns="http://www.w3.org/2000/svg" viewBox="0 0 66 66">
    <path d="M 10,5
    h 46 a 5,5 90 0,1 5,5
    v 46 a 5,5 90 0,1 -5,5
    h -46 a 5,5 90 0,1 -5,-5
    v -46 a 5,5 90 0,1 5,-5" stroke="black" stroke-width="2" fill="white" />
<path d="M 10,16 v 3 h 3 q 0,15 -5,26 c 3,0 9,-6 10,-31 z
    m 15,-1 q -5,16 -11,15 v 2 q 10,0 17,-18 z
    m -7,14 l 7,15 l 6,1 l -10,-17" fill="black" />
<path d="M 35,22 q 23,0 23,-2 c 0,6 -9,7 -25,7 z
    m 7,4 c -1,21 -6,27 -10,27 q 5,-11 5,-26
    m -2,10 q 15,0 15,-2 c 0,4 -7,6 -16,6" fill="black" />
</svg>